<svg viewBox="-14.318653347947334 -16.541085212282766 18.637306695894654 21.82384017536784" stroke-width="0.018186533479473202"><polyline points="0,0 1,0 0.5000000000000002,0.8660254037844387 -0.5000000000000007,-0.8660254037844383 2.499999999999999,-0.8660254037844383 0,3.4641016151377553 -4.0000000000000036,-3.4641016151377526 -3.552713678800501e-15,-3.4641016151377526 -1.5000000000000029,-0.8660254037844366 -5.000000000000006,-6.928203230275506 -4.000000000000006,-6.928203230275506 -8.000000000000004,3.552713678800501e-15 -12.500000000000007,-7.794228634059943 -4.500000000000007,-7.794228634059943 -8.500000000000005,-0.866025403784433 -12.000000000000009,-6.9282032302755026 -6.000000000000009,-6.9282032302755026 -8.000000000000007,-3.4641016151377477 -8.500000000000007,-4.3301270189221865 -3.500000000000007,-4.3301270189221865 -6.500000000000005,0.8660254037844455 -7.500000000000006,-0.8660254037844315 0.4999999999999938,-0.8660254037844315 -5.995204332975845e-15,7.216449660063518e-15 -4.50000000000001,-7.794228634059939 -3.5000000000000098,-7.794228634059939 -4.00000000000001,-6.928203230275501 -5.000000000000011,-8.660254037844378 -2.0000000000000107,-8.660254037844378 -4.50000000000001,-4.330127018922185 -8.500000000000014,-11.258330249197693 -4.500000000000014,-11.258330249197693 -6.000000000000013,-8.660254037844377 -9.500000000000016,-14.722431864335446 -8.500000000000016,-14.722431864335446 -12.500000000000014,-7.7942286340599365 " fill="none" stroke="white"></polyline></svg>